<?xml version="1.0" encoding="UTF-8" standalone="no"?>
<!-- Created with Inkscape (http://www.inkscape.org/) -->

<svg
   xmlns:dc="http://purl.org/dc/elements/1.1/"
   xmlns:cc="http://creativecommons.org/ns#"
   xmlns:rdf="http://www.w3.org/1999/02/22-rdf-syntax-ns#"
   xmlns:svg="http://www.w3.org/2000/svg"
   xmlns="http://www.w3.org/2000/svg"
   xmlns:sodipodi="http://sodipodi.sourceforge.net/DTD/sodipodi-0.dtd"
   xmlns:inkscape="http://www.inkscape.org/namespaces/inkscape"
   height="80.526405mm"
   width="80.526352mm"
   viewBox="0 0 80.526352 80.526405"
   version="1.1"
   id="svg4"
   inkscape:version="0.92.3 (unknown)"
   sodipodi:docname="favicon.svg"
   inkscape:export-filename="/home/nani/bitmap.png"
   inkscape:export-xdpi="5.0467916"
   inkscape:export-ydpi="5.0467916">
  <defs
     id="defs8" />
  <sodipodi:namedview
     pagecolor="#ffffff"
     bordercolor="#666666"
     borderopacity="1"
     objecttolerance="10"
     gridtolerance="10"
     guidetolerance="10"
     inkscape:pageopacity="0"
     inkscape:pageshadow="2"
     inkscape:window-width="640"
     inkscape:window-height="480"
     id="namedview6"
     showgrid="false"
     inkscape:showpageshadow="false"
     inkscape:zoom="2.0765445"
     inkscape:cx="152.17578"
     inkscape:cy="152.17588"
     inkscape:current-layer="svg4"
     inkscape:object-nodes="false"
     inkscape:snap-others="false"
     showborder="true"
     fit-margin-top="0"
     fit-margin-left="0"
     fit-margin-right="0"
     fit-margin-bottom="0" />
  <metadata
     id="metadata2">
    <rdf:RDF>
      <cc:Work
         rdf:about="">
        <dc:format>image/svg+xml</dc:format>
        <dc:type
           rdf:resource="http://purl.org/dc/dcmitype/StillImage" />
        <dc:title></dc:title>
      </cc:Work>
    </rdf:RDF>
  </metadata>
  <path
     style="color:#000000;clip-rule:nonzero;display:inline;overflow:visible;visibility:visible;opacity:1;isolation:auto;mix-blend-mode:normal;color-interpolation:sRGB;color-interpolation-filters:linearRGB;solid-color:#000000;solid-opacity:1;vector-effect:none;fill:#000000;fill-opacity:1;fill-rule:evenodd;stroke:none;stroke-width:0.47228125;stroke-linecap:butt;stroke-linejoin:miter;stroke-miterlimit:4;stroke-dasharray:none;stroke-dashoffset:0;stroke-opacity:1;paint-order:normal;color-rendering:auto;image-rendering:auto;shape-rendering:auto;text-rendering:auto;enable-background:accumulate"
     d="M 40.263175,0 A 40.263161,40.263161 0 0 0 0,40.263177 40.263161,40.263161 0 0 0 25.22275,77.580797 v -31.0224 h -9.105389 v -7.39851 h 9.105389 v -4.03541 c 0,-0.80624 0.02391,-1.58503 0.0708,-2.3363 0.04689,-0.75126 0.117065,-1.47515 0.210839,-2.17144 0.09377,-0.69629 0.210742,-1.365267 0.3514,-2.006597 0.140661,-0.64132 0.30493,-1.25487 0.492477,-1.84123 0.187547,-0.58635 0.398602,-1.14551 0.633036,-1.6769 0.234431,-0.53138 0.492275,-1.03512 0.773596,-1.51153 0.281318,-0.47641 0.585951,-0.92525 0.914156,-1.34669 0.328208,-0.42144 0.680138,-0.81537 1.055233,-1.18184 0.375091,-0.37078 0.777614,-0.7184 1.207678,-1.04283 0.430064,-0.32444 0.887492,-0.62574 1.372526,-0.90382 0.485034,-0.27809 0.997367,-0.53307 1.537374,-0.76481 0.540004,-0.23174 1.107764,-0.44041 1.702738,-0.6258 0.594977,-0.18539 1.217127,-0.34776 1.86707,-0.4868 0.649947,-0.13904 1.327518,-0.25457 2.032434,-0.34726 0.704919,-0.0927 1.437396,-0.16243 2.197282,-0.20877 0.759888,-0.0464 1.547271,-0.0692 2.362129,-0.0692 h 9.002035 v 7.91579 h -9.105388 c -0.853659,0 -1.642982,0.043 -2.367297,0.1292 -0.724318,0.0862 -1.383717,0.21563 -1.97869,0.38809 -0.594974,0.17245 -1.125486,0.38778 -1.591118,0.64647 -0.465633,0.25868 -0.866222,0.56046 -1.20251,0.90537 -0.32767,0.34491 -0.61466,0.7589 -0.860413,1.24178 -0.24575,0.48288 -0.450601,1.03487 -0.614433,1.655717 -0.163836,0.62084 -0.286535,1.31083 -0.368453,2.06964 -0.08192,0.75881 -0.122989,1.58628 -0.122989,2.48305 v 5.12217 h 15.676562 v 7.39851 H 34.794259 v 33.54782 a 40.263161,40.263161 0 0 0 5.468916,0.42014 40.263161,40.263161 0 0 0 15.447636,-3.09387 v -21.69377 h 9.519832 v 16.05742 A 40.263161,40.263161 0 0 0 80.52635,40.263177 40.263161,40.263161 0 0 0 40.263175,0 Z m 15.447636,33.181437 h 9.519832 v 12.05456 h -9.519832 z"
     id="path4514"
     inkscape:connector-curvature="0" />
</svg>
